<svg id="analytics-campaign" data-name="analytics-campaign" xmlns="http://www.w3.org/2000/svg" width="28.47" height="27.729" viewBox="0 0 28.47 27.729" fill="currentColor">
    <g id="Group_305" data-name="Group 305" transform="translate(0.47 26.406)">
        <g id="Group_304" data-name="Group 304">
            <path id="Path_97" data-name="Path 97" d="M27.338,456.607H.661a.661.661,0,1,0,0,1.323H27.339a.661.661,0,1,0,0-1.323Z" transform="translate(0 -456.607)" fill="currentColor"/>
        </g>
    </g>
    <g id="Group_306" data-name="Group 306" transform="translate(0 0)">
        <g id="Group_307" data-name="Group 307">
            <path id="Path_98" data-name="Path 98" d="M58.776,34.763h-5.3a.755.755,0,0,0-.754.754v5.129H48.934V31.955a.755.755,0,0,0-.754-.754h-5.3a.755.755,0,0,0-.754.754V46.231H38.337V39.818a.754.754,0,0,0-.754-.754h-5.3a.754.754,0,0,0-.754.754V54.26a.754.754,0,0,0,.754.754H58.776a.754.754,0,0,0,.754-.754V35.517A.754.754,0,0,0,58.776,34.763ZM36.828,53.506H33.039V40.572h3.789Zm5.3,0H38.337V47.74h3.789Zm5.3-12.105V53.506H43.635V32.71h3.789Zm5.3,12.105H48.934V42.155h3.789Zm5.3,0H54.232V36.271h3.789V53.506Z" transform="translate(-31.53 -31.201)" fill="currentColor"/>
        </g>
    </g>
</svg>
