<svg id="details-campaign" data-name="details-campaign" xmlns="http://www.w3.org/2000/svg" width="28.007" height="28.007" viewBox="0 0 28.007 28.007" fill="currentColor">
    <path id="Path_113" data-name="Path 113" d="M237,107.835a1.167,1.167,0,1,1-1.167-1.167A1.167,1.167,0,0,1,237,107.835Zm0,0" transform="translate(-221.831 -100.833)" fill="currentColor"/>
    <path id="Path_114" data-name="Path 114" d="M205.585,203.669a.876.876,0,0,1-.875-.875V193.75h-1.167a.875.875,0,0,1,0-1.75h2.042a.876.876,0,0,1,.875.875v9.919A.876.876,0,0,1,205.585,203.669Zm0,0" transform="translate(-191.582 -181.497)" fill="currentColor"/>
    <path id="Path_115" data-name="Path 115" d="M14,28.007a14,14,0,1,1,14-14A14.019,14.019,0,0,1,14,28.007ZM14,1.75A12.253,12.253,0,1,0,26.256,14,12.266,12.266,0,0,0,14,1.75Zm0,0" fill="currentColor"/>
    <path id="Path_116" data-name="Path 116" d="M198.126,375.082h-5.251a.875.875,0,1,1,0-1.75h5.251a.875.875,0,1,1,0,1.75Zm0,0" transform="translate(-181.497 -352.91)" fill="currentColor"/>
</svg>
