<svg id="edit-campaign" data-name="edit-campaign" xmlns="http://www.w3.org/2000/svg" width="28.722" height="28.483" viewBox="0 0 28.722 28.483" fill="currentColor">
    <path id="Path_94" data-name="Path 94" d="M24.343,53.018a.655.655,0,0,0-.657.654v5.8a1.968,1.968,0,0,1-1.971,1.961H3.284a1.968,1.968,0,0,1-1.971-1.961V42.441A1.968,1.968,0,0,1,3.284,40.48H9.117a.654.654,0,1,0,0-1.307H3.284A3.28,3.28,0,0,0,0,42.441V59.476a3.28,3.28,0,0,0,3.284,3.268H21.716A3.28,3.28,0,0,0,25,59.476v-5.8a.655.655,0,0,0-.657-.654Zm0,0" transform="translate(0 -34.261)" fill="currentColor"/>
    <path id="Path_95" data-name="Path 95" d="M131.068,1.384a3.835,3.835,0,0,0-5.424,0L110.44,16.589a.852.852,0,0,0-.219.375l-2,7.219a.852.852,0,0,0,1.049,1.049l7.219-2a.852.852,0,0,0,.375-.219l15.2-15.205a3.839,3.839,0,0,0,0-5.424ZM112.3,17.143,124.741,4.7l4.013,4.013L116.309,21.156Zm-.8,1.609,3.206,3.207-4.435,1.229ZM130.863,6.6l-.9.9-4.014-4.014.9-.9a2.131,2.131,0,0,1,3.013,0l1,1A2.134,2.134,0,0,1,130.863,6.6Zm0,0" transform="translate(-104.469 -0.261)" fill="currentColor"/>
</svg>
